<?xml version="1.0" encoding="UTF-8" standalone="no"?>
<svg
   xmlns:dc="http://purl.org/dc/elements/1.1/"
   xmlns:cc="http://creativecommons.org/ns#"
   xmlns:rdf="http://www.w3.org/1999/02/22-rdf-syntax-ns#"
   xmlns:svg="http://www.w3.org/2000/svg"
   xmlns="http://www.w3.org/2000/svg"
   xmlns:sodipodi="http://sodipodi.sourceforge.net/DTD/sodipodi-0.dtd"
   xmlns:inkscape="http://www.inkscape.org/namespaces/inkscape"
   version="1.1"
   id="Layer_1"
   x="0px"
   y="0px"
   viewBox="0 0 122.88 122.88"
   style="enable-background:new 0 0 122.88 122.88"
   xml:space="preserve"
   sodipodi:docname="starburst.svg"
   inkscape:version="1.0 (b51213c273, 2020-08-10)"><metadata
     id="metadata923"><rdf:RDF><cc:Work
         rdf:about=""><dc:format>image/svg+xml</dc:format><dc:type
           rdf:resource="http://purl.org/dc/dcmitype/StillImage" /><dc:title></dc:title></cc:Work></rdf:RDF></metadata><defs
     id="defs921" /><sodipodi:namedview
     pagecolor="#ffffff"
     bordercolor="#666666"
     borderopacity="1"
     objecttolerance="10"
     gridtolerance="10"
     guidetolerance="10"
     inkscape:pageopacity="0"
     inkscape:pageshadow="2"
     inkscape:window-width="1859"
     inkscape:window-height="1056"
     id="namedview919"
     showgrid="false"
     inkscape:zoom="5.21"
     inkscape:cx="61.44"
     inkscape:cy="61.44"
     inkscape:window-x="61"
     inkscape:window-y="24"
     inkscape:window-maximized="1"
     inkscape:current-layer="text927" /><style
     type="text/css"
     id="style912">.st0{fill-rule:evenodd;clip-rule:evenodd;}</style><g
     id="g916"
     style="fill:#f2b41c;fill-opacity:1"><polygon
       class="st0"
       points="19.44,50.16 8.22,30.72 30.72,30.72 30.72,8.13 50.16,19.44 61.44,0 72.72,19.44 92.16,8.13 92.16,30.72 114.75,30.72 103.44,50.16 122.88,61.44 103.44,72.72 114.75,92.16 92.16,92.16 92.16,114.66 72.72,103.44 61.44,122.88 50.16,103.44 30.72,114.66 30.72,92.16 8.22,92.16 19.44,72.72 0,61.44 19.44,50.16"
       id="polygon914"
       style="fill:#f2b41c;fill-opacity:1" /></g><g
     aria-label="New!"
     id="text927"
     style="font-style:normal;font-weight:normal;font-size:56.9326px;line-height:1.25;font-family:sans-serif;fill:#ffffff;fill-opacity:1;stroke:#000000;stroke-width:1.42332;stroke-opacity:1"><path
       d="M 12.335901,80.549591 V 39.962876 h 8.20074 l 8.200741,21.850108 q 0.361388,1.056367 1.000768,3.252497 0.667179,2.168332 1.501152,5.115038 -0.639379,-4.308863 -0.94517,-7.89495 -0.30579,-3.613886 -0.30579,-6.727387 V 39.962876 h 7.505762 V 80.549591 H 29.988342 L 21.092624,57.83771 q -0.222393,-0.500384 -1.167564,-4.142069 -0.444785,-1.667947 -0.694978,-2.613117 0.277992,2.362925 0.416987,5.337431 0.138996,2.946706 0.138996,7.060976 v 17.06866 z"
       style="font-style:normal;font-variant:normal;font-weight:normal;font-stretch:normal;font-family:'Futura BdCn BT';-inkscape-font-specification:'Futura BdCn BT';fill:#ffffff;fill-opacity:1;stroke:#000000;stroke-width:1.42332;stroke-opacity:1"
       id="path929" /><path
       d="m 57.398274,64.592896 q -0.0834,-2.974506 -1.084166,-4.392261 -0.972969,-1.445554 -2.946707,-1.445554 -1.945938,0 -2.974506,1.501152 -1.028567,1.501153 -1.028567,4.364462 z m -8.033946,4.336663 v 0.222393 q 0,3.057903 1.084166,4.698051 1.084165,1.640148 3.085702,1.640148 1.278759,0 2.168331,-0.778375 0.917371,-0.778376 1.473354,-2.362925 h 6.477195 q -0.889572,4.08647 -3.697283,6.393797 -2.779912,2.307327 -6.838584,2.307327 -5.087239,0 -8.089544,-3.808479 -3.002305,-3.80848 -3.002305,-10.285675 0,-6.560592 3.002305,-10.369072 3.002305,-3.808479 8.089544,-3.808479 5.393029,0 8.145142,3.752881 2.752113,3.752881 2.752113,11.091849 v 1.306559 z"
       style="font-style:normal;font-variant:normal;font-weight:normal;font-stretch:normal;font-family:'Futura BdCn BT';-inkscape-font-specification:'Futura BdCn BT';fill:#ffffff;fill-opacity:1;stroke:#000000;stroke-width:1.42332;stroke-opacity:1"
       id="path931" /><path
       d="m 84.474619,53.278654 2.22393,11.70343 q 0.194594,1.195362 0.444786,3.280296 0.250192,2.084934 0.528183,4.753649 0.30579,-2.50192 0.583781,-4.698051 0.305791,-2.223929 0.500385,-3.419292 l 2.112733,-11.620032 h 7.283369 L 90.979613,80.549591 H 84.474619 L 82.500882,69.235349 q -0.138996,-0.722777 -0.416987,-3.1413 -0.250192,-2.418524 -0.555983,-5.976811 l -0.138995,1.334358 q -0.667179,7.088775 -0.778376,7.783753 L 78.609005,80.549591 H 72.13181 L 64.959637,53.278654 h 7.283369 l 2.057135,11.620032 q 0.0834,0.528184 0.694978,5.115039 0.222393,1.89034 0.389188,3.002304 0.194594,-2.335126 0.444786,-4.39226 0.277991,-2.084935 0.583781,-3.613886 l 2.140532,-11.731229 z"
       style="font-style:normal;font-variant:normal;font-weight:normal;font-stretch:normal;font-family:'Futura BdCn BT';-inkscape-font-specification:'Futura BdCn BT';fill:#ffffff;fill-opacity:1;stroke:#000000;stroke-width:1.42332;stroke-opacity:1"
       id="path933" /><path
       d="M 102.12706,68.651568 V 39.962876 h 7.64476 v 28.688692 z m 8.72892,7.505762 q 0,2.112733 -1.41775,3.502689 -1.38996,1.389956 -3.47489,1.389956 -2.08494,0 -3.50269,-1.389956 -1.41776,-1.389956 -1.41776,-3.502689 0,-2.084934 1.41776,-3.47489 1.44555,-1.417755 3.50269,-1.417755 2.05713,0 3.47489,1.417755 1.41775,1.389956 1.41775,3.47489 z"
       style="font-style:normal;font-variant:normal;font-weight:normal;font-stretch:normal;font-family:'Futura BdCn BT';-inkscape-font-specification:'Futura BdCn BT';fill:#ffffff;fill-opacity:1;stroke:#000000;stroke-width:1.42332;stroke-opacity:1"
       id="path935" /></g></svg>
